<?xml version="1.0" encoding="UTF-8"?>
<svg id="Calque_1" data-name="Calque 1" xmlns="http://www.w3.org/2000/svg" viewBox="0 0 167 123.5">
  <defs>
    <style>
      .cls-1 {
        fill: none;
        stroke: #fff;
        stroke-miterlimit: 10;
      }

      .cls-2 {
        fill: #fff;
      }
    </style>
  </defs>
  <path class="cls-2" d="M9.75,17.36H.02l.98-4.88h16.71l.4.4c0,2.15-5.4,16.89-9.33,27.45-1.76,4.79-2.46,7.23-2.46,9.28,0,2.53,1.76,4.88,5.69,4.88,2.36,0,5-2.53,10.22-9.77l1.96.98-6.48,8.79c-3.15,4.2-4.91,5.86-6.88,6.84h-1.96c-3.93,0-7.27-3.13-7.27-7.61,0-1.37.29-3.42.78-5.28l7.35-31.07Z"/>
  <path class="cls-2" d="M64.16,36.11c.98-3.62,2.26-6.35,2.26-10.36,0-4.68-3.53-8.39-8.64-8.39-5.99,0-9.53,3.91-15.71,19.53l-9.62,24.41h-5.89l10.8-43.95h-15.21l.98-4.88h20.72l.4.4c0,1.95-9.24,29.3-9.82,30.87h1.18l5.69-12.7c6.08-13.6,12.75-19.55,21.19-19.55,7.66,0,11,5.28,11,9.77,0,5.08-1.87,8.88-4.82,16.22-3.35,8.21-4.02,9.87-4.02,12.12,0,2.53.78,4.88,4.71,4.88,2.36,0,5-2.53,10.22-9.77l1.96.98-6.48,8.79c-3.15,4.2-4.91,5.86-6.88,6.84h-1.96c-3.93,0-6.29-3.13-6.29-7.61,0-1.37.29-3.42.78-5.28l3.44-12.31Z"/>
  <path class="cls-2" d="M8.15,119.98c-.58,0-1.07.2-1.57.69l-2.95,2.84h-.4l-3.24-19.55,1.96-.98c.29.98,4.71,17.58,21.02,17.58,6.88,0,9.82-2.93,9.82-7.81,0-12.69-25.54-9.77-25.54-26.37,0-8.79,7.86-13.67,15.33-13.67,7.86,0,9.62,3.51,12.19,3.51.58,0,1.07-.2,1.57-.69l2.95-2.84h.4l3.24,19.53-1.96.98c-.29-.98-5.2-17.58-17.39-17.58-5.49,0-9.44,2.93-9.44,8.79,0,12.7,24.55,10.74,24.55,25.39,0,9.38-7.86,13.67-16.11,13.67-9.13,0-11.89-3.51-14.44-3.51v.02Z"/>
  <path class="cls-2" d="M57.86,78.56h-9.73l.98-4.88h16.7l.4.4c0,2.15-5.4,16.89-9.33,27.45-1.76,4.79-2.46,7.23-2.46,9.28,0,2.53,1.76,4.88,5.69,4.88,2.36,0,5-2.53,10.22-9.76l1.96.98-6.48,8.79c-3.15,4.2-4.91,5.86-6.88,6.84h-1.96c-3.93,0-7.27-3.13-7.27-7.61,0-1.37.29-3.42.78-5.28l7.37-31.07Z"/>
  <path class="cls-2" d="M103.34,106.49l3.73-6.45,1.96.98-3.73,6.45c-5.31,9.08-11.69,16.02-18.86,16.02-2.36,0-9.04-1.27-9.04-8.79,0-1.95.29-4.68,1.38-7.61l10.11-28.52h-18.86l1.07-4.88h18.86l2.72-22.46h6.51l-5.69,22.46h15.62l-1.07,4.88h-15.82l-6.97,27.34c-.49,1.95-.78,3.51-.78,5.08,0,4.3,2.85,6.64,5.89,6.64,4.02,0,7.57-1.86,12.97-11.14Z"/>
  <path class="cls-2" d="M165.04,105.91l1.96.98-6.48,8.79c-3.15,4.2-4.91,5.86-6.88,6.84h-1.96c-3.93,0-6.29-3.13-6.29-7.62,0-1.56.29-2.93.98-4.88l6.88-18.75h-1.18l-5.69,12.7c-6.09,13.58-12.77,19.53-21.22,19.53-7.66,0-11-5.28-11-9.77,0-5.08,1.56-8.59,4.33-16.22,1.87-5.08,4.33-11.34,7.17-18.95h-21.25l1.07-4.88h24.88l.4.4-7.46,24.81c-1.07,3.62-2.06,7.32-2.06,10.36,0,4.68,3.64,8.39,8.64,8.39,5.99,0,9.53-3.91,15.71-19.53l9.62-24.41h5.89l-8.06,33.02c-.4,1.47-.98,3.71-.98,6.06,0,1.95.98,2.93,2.75,2.93,2.36,0,5-2.53,10.22-9.77h.01Z"/>
  <path class="cls-2" d="M119.05,21.5h2.35v-1.16c.58,1,1.68,1.38,2.64,1.38,2.18,0,3.98-1.87,3.98-4.79s-1.77-4.78-3.98-4.78c-1.16,0-2.14.53-2.64,1.38v-4.35h-2.35v12.32ZM125.55,16.94c0,1.78-.88,2.98-2.09,2.98-1.29,0-2.14-1.12-2.14-2.99s.85-2.98,2.14-2.98c1.21,0,2.09,1.21,2.09,2.99ZM131.4,17.57h6.75c.1-3.23-1.67-5.42-4.49-5.42s-4.59,2.02-4.59,4.74,1.72,4.83,4.66,4.83c2.48,0,3.82-1.51,4.32-2.87h-2.41c-.48.8-1.21,1.05-1.92,1.05-1.1,0-2.19-.77-2.31-2.33ZM131.43,15.96c.19-1.53,1.33-2.09,2.21-2.09.99,0,2.07.54,2.12,2.09h-4.34ZM139.98,9.87v2.48h-1.29v1.61h1.29v5.07c0,1.82.41,2.47,2.5,2.47h1.72v-1.68h-.71c-.83,0-1.16-.19-1.16-1.12v-4.73h1.9v-1.61h-1.9v-2.48h-2.35ZM148.66,21.72c1.38,0,2.35-.41,2.99-1.36.03.44.08.85.15,1.14h2.16c-.17-.76-.27-1.58-.27-3.03,0-.83.03-2.04.03-2.33,0-3.09-1.77-4.03-3.94-4.03-2.35,0-3.84,1.33-4.01,3.13h2.19c.05-1,.8-1.48,1.7-1.48.95,0,1.72.49,1.72,1.9v.15c-3.59.41-6.02,1.05-6.02,3.21,0,1.67,1.55,2.69,3.3,2.69ZM151.45,17.32v.68c0,1.33-.63,2.12-2.09,2.12-1.05,0-1.58-.54-1.58-1.21,0-1.02,1.05-1.33,3.67-1.6Z"/>
  <path class="cls-1" d="M121.58.5c-8.6,0-15.58,6.96-15.58,15.55s6.97,15.55,15.58,15.55h12.11v6.91l7.91-6.91h8.82c8.6,0,15.58-6.96,15.58-15.55s-6.97-15.55-15.58-15.55h-28.85Z"/>
</svg>